<svg xmlns="http://www.w3.org/2000/svg" xmlns:xlink="http://www.w3.org/1999/xlink" viewBox="0 0 870.19 342.02"><defs><style>.cls-1{fill:none;stroke:#000;stroke-miterlimit:10;}.cls-2{fill:url(#linear-gradient);}.cls-3{fill:#231f20;}.cls-4{fill:url(#linear-gradient-17);}.cls-5{fill:url(#linear-gradient-41);}</style><linearGradient id="linear-gradient" x1="434.05" y1="484.74" x2="1216.74" y2="484.74" gradientUnits="userSpaceOnUse"><stop offset="0" stop-color="#3ddeed"/><stop offset="0.09" stop-color="#3ddeed" stop-opacity="0.97"/><stop offset="0.23" stop-color="#3ddeed" stop-opacity="0.88"/><stop offset="0.39" stop-color="#3ddeed" stop-opacity="0.74"/><stop offset="0.58" stop-color="#3ddeed" stop-opacity="0.54"/><stop offset="0.79" stop-color="#3ddeed" stop-opacity="0.29"/><stop offset="1" stop-color="#3ddeed" stop-opacity="0"/></linearGradient><linearGradient id="linear-gradient-17" x1="417.48" y1="463.6" x2="1200.17" y2="463.6" xlink:href="#linear-gradient"/><linearGradient id="linear-gradient-41" x1="808.82" y1="353.19" x2="808.82" y2="574.01" gradientUnits="userSpaceOnUse"><stop offset="0" stop-color="#ff1515"/><stop offset="0.15" stop-color="#ff2e18"/><stop offset="0.48" stop-color="#ff6f1e"/><stop offset="0.94" stop-color="#ffd529"/><stop offset="1" stop-color="#ffe22a"/></linearGradient></defs><title>ultimate</title><g id="Layer_1" data-name="Layer 1"><path class="cls-1" d="M487.46,582.09c-5.55,19.12-23.22,57-31.23,67.43-30.14,40.33-49.32,45.61-73.91,35.5-23.65-9.52-17.9-59.94-13.59-88.75C376,550,406.08,459.84,440.11,372.34l3.67,6.57-3.73,22.5,10.79-15,2.25,4,5-7.6,1.27,11,10.19-19.57.75,12.08,6.85-5.41c-14.63,36.28-21.61,59.17-28.13,78.83-9.17,27-32.85,95.76-35.79,113.28-3.78,22.53-5.9,38.5.85,45.24,11.12,4.48,17.83-4,26.83-28.14,25.09-66.51,51-160.24,68.06-208.73l9.5-7.19L516.29,395,530,370.54l1.52,8.11-1,14.59,9.23-13.52,1.63,6.64,10.4-13.81,2.37,9.37C524.23,461.35,504.19,522.72,487.46,582.09Z" transform="translate(-347.75 -347.95)"/><path class="cls-1" d="M563.9,618.1l10.42,5.67L569,632.9l8.3,6-5.59,10.24-72.12,13.82,9.93-18.09-7.43-1.11,2.52-19.54-12.89,13.6-3.36-2.25c12.49-48.31,39.29-126.14,62-187.95l3.52,9.82,13.26-21.55-1.19,25,10.45-17.78,2.08,10.84L589,446.2C574.62,485.91,546.47,562.93,537.11,605l41.68-6.86,4.61,8.39Z" transform="translate(-347.75 -347.95)"/><path class="cls-1" d="M698.69,469.07l8.56,9.33-7.7,8.48,2.33,8.36-36.14,4.17c-16.2,40.95-33.84,108.17-42.68,141.49l-5.26-6.28-10.42,16.31L605.1,631l-8.21,10.92-2.73-8.9-10.38,15.45-2.62-3.22c9.42-33.49,25.79-96.32,41.16-140.82l-33.09,3.83L597,495.83l-4.44-7,13.57-8.52-3.33-9.81,14.81-6.45-13.68-7.88,2.13-8,107.07-8.85-6.68,11.4,11,6.3Z" transform="translate(-347.75 -347.95)"/><path class="cls-1" d="M705.31,631.37l-4.29-7.7-6.95,6.41,1.72-26.36L683.65,627l-4.9-9-12.39,14.89C684,563.54,708.8,484,729.24,433.62l2.67,10.79,14.63-21.83.48,21.76,10.3-10.49,2.54,9.37,10.21-8.87C751,484.3,718.07,583.1,705.31,631.37Z" transform="translate(-347.75 -347.95)"/><path class="cls-1" d="M857.88,598.54,851.71,594,844,608.19l-2.61-15.73L833,601.93l-.28-14.84-10.13,15.39-3.18,2.37,15.52-61.69-.71.11c-12.31,17.55-26,44.48-35,58.93l-4.35-7.55-7.47,8.29c-1.46-13.56-3-35.29-3-49.47l-.71.11c-6.5,17.39-15.28,47.17-20.11,63.3L760,609.34l-8.9,12.74-1.21-22.2-9.54,20.29-1.76-6.77L726,624.2C739,568.69,765.1,481.49,781.69,434.3l4.64,9.34,7.39-13.06,3.11,26.59L803.54,434l2.72,6.37,7.38-8.71C814,454,815.88,493.06,818,507c13.27-24.39,37.8-62,53.34-82.75l3.58,8.88,9.61-13.09.34,20.19L895,426.31l2.79,6,10.23-6C891,469.43,868.72,548.45,857.88,598.54Z" transform="translate(-347.75 -347.95)"/><path class="cls-1" d="M985.93,568.1l-8.63-4.19-5.64,6.65L965.27,556l-7.5,19.63-4.48-7.23L944,578.27l3.89-24-28.71,5.06L906.78,586.8l-5.85-7.53-5,6.26-1.21-17.45-13.37,21.64-1.27-9.38L863.68,590c15.55-39.83,57.26-129.47,88.72-175.28l4.7,12.09,9.81-8.12L969.78,438l16.08-22.52,6.76,7.37,11.89-8.89C998,454.19,986.53,532.39,985.93,568.1Zm-27.52-96.84c-8.72,15.71-19.53,36.8-24.45,49.56L950,518.38l8.85-47.17Z" transform="translate(-347.75 -347.95)"/><path class="cls-1" d="M1110.74,428l9,6.77-7.35,6.55,2.72,6.19L1079,451.66c-14.48,31.39-29.28,82.87-36.74,108.49l-5.58-4.52-9.79,12.86-3.17-15-7.8,8.67-3.13-6.65L1003,567.72l-2.77-2.34c8-25.94,21.84-74.4,35.37-108.71l-33.09,3.83,7.29-9.7-4.76-5.23,13.26-6.82-3.76-7.41,14.59-5.24L1015,420.38l1.8-6.12,107.06-8.85-6.18,8.67,11.37,4.46Z" transform="translate(-347.75 -347.95)"/><path class="cls-1" d="M1196.87,414.44l11.91,5.31-8.9,4.94,3.73,7.65c-10.55-.4-28.6,2.27-41,5.27l-9.3,17.11,34.32-4.52,2.57,4.65-10.86,7.56,9.63,4.59-8,6.13,5.87,4.14-2.86,5.42-41.57,5.83-5.66,20.2c11.11.48,32-4,43.35-7.22l-8.36,12.17,5.44,2.25-13.58,8,14.47,1.24-4.56,8.17c-21.23,9.19-55.26,13.44-68.08,13.51l7.78-12.54-8.5-1.82,1.12-10.35-12.68,8c6.53-36.85,21.23-74.13,36.42-105.92l4.85,4.5,8.25-6-3.38-10.75,10-1.83-3-5.84c23.12-5.14,51.09-6.72,69.28-7.09l-7.47,6.4,8.64,5.88Z" transform="translate(-347.75 -347.95)"/><path d="M487.46,582.09c-5.55,19.12-23.22,57-31.23,67.43-30.14,40.33-49.32,45.61-73.91,35.5-23.65-9.52-17.9-59.94-13.59-88.75C376,550,406.08,459.84,440.11,372.34l3.67,6.57-3.73,22.5,10.79-15,2.25,4,5-7.6,1.27,11,10.19-19.57.75,12.08,6.85-5.41c-14.63,36.28-21.61,59.17-28.13,78.83-9.17,27-32.85,95.76-35.79,113.28-3.78,22.53-5.9,38.5.85,45.24,11.12,4.48,17.83-4,26.83-28.14,25.09-66.51,51-160.24,68.06-208.73l9.5-7.19L516.29,395,530,370.54l1.52,8.11-1,14.59,9.23-13.52,1.63,6.64,10.4-13.81,2.37,9.37C524.23,461.35,504.19,522.72,487.46,582.09Z" transform="translate(-347.75 -347.95)"/><path d="M563.9,618.1l10.42,5.67L569,632.9l8.3,6-5.59,10.24-72.12,13.82,9.93-18.09-7.43-1.11,2.52-19.54-12.89,13.6-3.36-2.25c12.49-48.31,39.29-126.14,62-187.95l3.52,9.82,13.26-21.55-1.19,25,10.45-17.78,2.08,10.84L589,446.2C574.62,485.91,546.47,562.93,537.11,605l41.68-6.86,4.61,8.39Z" transform="translate(-347.75 -347.95)"/><path d="M698.69,469.07l8.56,9.33-7.7,8.48,2.33,8.36-36.14,4.17c-16.2,40.95-33.84,108.17-42.68,141.49l-5.26-6.28-10.42,16.31L605.1,631l-8.21,10.92-2.73-8.9-10.38,15.45-2.62-3.22c9.42-33.49,25.79-96.32,41.16-140.82l-33.09,3.83L597,495.83l-4.44-7,13.57-8.52-3.33-9.81,14.81-6.45-13.68-7.88,2.13-8,107.07-8.85-6.68,11.4,11,6.3Z" transform="translate(-347.75 -347.95)"/><path d="M705.31,631.37l-4.29-7.7-6.95,6.41,1.72-26.36L683.65,627l-4.9-9-12.39,14.89C684,563.54,708.8,484,729.24,433.62l2.67,10.79,14.63-21.83.48,21.76,10.3-10.49,2.54,9.37,10.21-8.87C751,484.3,718.07,583.1,705.31,631.37Z" transform="translate(-347.75 -347.95)"/><path d="M857.88,598.54,851.71,594,844,608.19l-2.61-15.73L833,601.93l-.28-14.84-10.13,15.39-3.18,2.37,15.52-61.69-.71.11c-12.31,17.55-26,44.48-35,58.93l-4.35-7.55-7.47,8.29c-1.46-13.56-3-35.29-3-49.47l-.71.11c-6.5,17.39-15.28,47.17-20.11,63.3L760,609.34l-8.9,12.74-1.21-22.2-9.54,20.29-1.76-6.77L726,624.2C739,568.69,765.1,481.49,781.69,434.3l4.64,9.34,7.39-13.06,3.11,26.59L803.54,434l2.72,6.37,7.38-8.71C814,454,815.88,493.06,818,507c13.27-24.39,37.8-62,53.34-82.75l3.58,8.88,9.61-13.09.34,20.19L895,426.31l2.79,6,10.23-6C891,469.43,868.72,548.45,857.88,598.54Z" transform="translate(-347.75 -347.95)"/><path d="M985.93,568.1l-8.63-4.19-5.64,6.65L965.27,556l-7.5,19.63-4.48-7.23L944,578.27l3.89-24-28.71,5.06L906.78,586.8l-5.85-7.53-5,6.26-1.21-17.45-13.37,21.64-1.27-9.38L863.68,590c15.55-39.83,57.26-129.47,88.72-175.28l4.7,12.09,9.81-8.12L969.78,438l16.08-22.52,6.76,7.37,11.89-8.89C998,454.19,986.53,532.39,985.93,568.1Zm-27.52-96.84c-8.72,15.71-19.53,36.8-24.45,49.56L950,518.38l8.85-47.17Z" transform="translate(-347.75 -347.95)"/><path d="M1110.74,428l9,6.77-7.35,6.55,2.72,6.19L1079,451.66c-14.48,31.39-29.28,82.87-36.74,108.49l-5.58-4.52-9.79,12.86-3.17-15-7.8,8.67-3.13-6.65L1003,567.72l-2.77-2.34c8-25.94,21.84-74.4,35.37-108.71l-33.09,3.83,7.29-9.7-4.76-5.23,13.26-6.82-3.76-7.41,14.59-5.24L1015,420.38l1.8-6.12,107.06-8.85-6.18,8.67,11.37,4.46Z" transform="translate(-347.75 -347.95)"/><path d="M1196.87,414.44l11.91,5.31-8.9,4.94,3.73,7.65c-10.55-.4-28.6,2.27-41,5.27l-9.3,17.11,34.32-4.52,2.57,4.65-10.86,7.56,9.63,4.59-8,6.13,5.87,4.14-2.86,5.42-41.57,5.83-5.66,20.2c11.11.48,32-4,43.35-7.22l-8.36,12.17,5.44,2.25-13.58,8,14.47,1.24-4.56,8.17c-21.23,9.19-55.26,13.44-68.08,13.51l7.78-12.54-8.5-1.82,1.12-10.35-12.68,8c6.53-36.85,21.23-74.13,36.42-105.92l4.85,4.5,8.25-6-3.38-10.75,10-1.83-3-5.84c23.12-5.14,51.09-6.72,69.28-7.09l-7.47,6.4,8.64,5.88Z" transform="translate(-347.75 -347.95)"/><path class="cls-2" d="M487.46,582.09c-5.55,19.12-23.22,57-31.23,67.43-30.14,40.33-49.32,45.61-73.91,35.5-23.65-9.52-17.9-59.94-13.59-88.75C376,550,406.08,459.84,440.11,372.34l3.67,6.57-3.73,22.5,10.79-15,2.25,4,5-7.6,1.27,11,10.19-19.57.75,12.08,6.85-5.41c-14.63,36.28-21.61,59.17-28.13,78.83-9.17,27-32.85,95.76-35.79,113.28-3.78,22.53-5.9,38.5.85,45.24,11.12,4.48,17.83-4,26.83-28.14,25.09-66.51,51-160.24,68.06-208.73l9.5-7.19L516.29,395,530,370.54l1.52,8.11-1,14.59,9.23-13.52,1.63,6.64,10.4-13.81,2.37,9.37C524.23,461.35,504.19,522.72,487.46,582.09Z" transform="translate(-347.75 -347.95)"/><path class="cls-2" d="M563.9,618.1l10.42,5.67L569,632.9l8.3,6-5.59,10.24-72.12,13.82,9.93-18.09-7.43-1.11,2.52-19.54-12.89,13.6-3.36-2.25c12.49-48.31,39.29-126.14,62-187.95l3.52,9.82,13.26-21.55-1.19,25,10.45-17.78,2.08,10.84L589,446.2C574.62,485.91,546.47,562.93,537.11,605l41.68-6.86,4.61,8.39Z" transform="translate(-347.75 -347.95)"/><path class="cls-2" d="M698.69,469.07l8.56,9.33-7.7,8.48,2.33,8.36-36.14,4.17c-16.2,40.95-33.84,108.17-42.68,141.49l-5.26-6.28-10.42,16.31L605.1,631l-8.21,10.92-2.73-8.9-10.38,15.45-2.62-3.22c9.42-33.49,25.79-96.32,41.16-140.82l-33.09,3.83L597,495.83l-4.44-7,13.57-8.52-3.33-9.81,14.81-6.45-13.68-7.88,2.13-8,107.07-8.85-6.68,11.4,11,6.3Z" transform="translate(-347.75 -347.95)"/><path class="cls-2" d="M705.31,631.37l-4.29-7.7-6.95,6.41,1.72-26.36L683.65,627l-4.9-9-12.39,14.89C684,563.54,708.8,484,729.24,433.62l2.67,10.79,14.63-21.83.48,21.76,10.3-10.49,2.54,9.37,10.21-8.87C751,484.3,718.07,583.1,705.31,631.37Z" transform="translate(-347.75 -347.95)"/><path class="cls-2" d="M857.88,598.54,851.71,594,844,608.19l-2.61-15.73L833,601.93l-.28-14.84-10.13,15.39-3.18,2.37,15.52-61.69-.71.11c-12.31,17.55-26,44.48-35,58.93l-4.35-7.55-7.47,8.29c-1.46-13.56-3-35.29-3-49.47l-.71.11c-6.5,17.39-15.28,47.17-20.11,63.3L760,609.34l-8.9,12.74-1.21-22.2-9.54,20.29-1.76-6.77L726,624.2C739,568.69,765.1,481.49,781.69,434.3l4.64,9.34,7.39-13.06,3.11,26.59L803.54,434l2.72,6.37,7.38-8.71C814,454,815.88,493.06,818,507c13.27-24.39,37.8-62,53.34-82.75l3.58,8.88,9.61-13.09.34,20.19L895,426.31l2.79,6,10.23-6C891,469.43,868.72,548.45,857.88,598.54Z" transform="translate(-347.75 -347.95)"/><path class="cls-2" d="M985.93,568.1l-8.63-4.19-5.64,6.65L965.27,556l-7.5,19.63-4.48-7.23L944,578.27l3.89-24-28.71,5.06L906.78,586.8l-5.85-7.53-5,6.26-1.21-17.45-13.37,21.64-1.27-9.38L863.68,590c15.55-39.83,57.26-129.47,88.72-175.28l4.7,12.09,9.81-8.12L969.78,438l16.08-22.52,6.76,7.37,11.89-8.89C998,454.19,986.53,532.39,985.93,568.1Zm-27.52-96.84c-8.72,15.71-19.53,36.8-24.45,49.56L950,518.38l8.85-47.17Z" transform="translate(-347.75 -347.95)"/><path class="cls-2" d="M1110.74,428l9,6.77-7.35,6.55,2.72,6.19L1079,451.66c-14.48,31.39-29.28,82.87-36.74,108.49l-5.58-4.52-9.79,12.86-3.17-15-7.8,8.67-3.13-6.65L1003,567.72l-2.77-2.34c8-25.94,21.84-74.4,35.37-108.71l-33.09,3.83,7.29-9.7-4.76-5.23,13.26-6.82-3.76-7.41,14.59-5.24L1015,420.38l1.8-6.12,107.06-8.85-6.18,8.67,11.37,4.46Z" transform="translate(-347.75 -347.95)"/><path class="cls-2" d="M1196.87,414.44l11.91,5.31-8.9,4.94,3.73,7.65c-10.55-.4-28.6,2.27-41,5.27l-9.3,17.11,34.32-4.52,2.57,4.65-10.86,7.56,9.63,4.59-8,6.13,5.87,4.14-2.86,5.42-41.57,5.83-5.66,20.2c11.11.48,32-4,43.35-7.22l-8.36,12.17,5.44,2.25-13.58,8,14.47,1.24-4.56,8.17c-21.23,9.19-55.26,13.44-68.08,13.51l7.78-12.54-8.5-1.82,1.12-10.35-12.68,8c6.53-36.85,21.23-74.13,36.42-105.92l4.85,4.5,8.25-6-3.38-10.75,10-1.83-3-5.84c23.12-5.14,51.09-6.72,69.28-7.09l-7.47,6.4,8.64,5.88Z" transform="translate(-347.75 -347.95)"/><path class="cls-2" d="M487.46,582.09c-5.55,19.12-23.22,57-31.23,67.43-30.14,40.33-49.32,45.61-73.91,35.5-23.65-9.52-17.9-59.94-13.59-88.75C376,550,406.08,459.84,440.11,372.34l3.67,6.57-3.73,22.5,10.79-15,2.25,4,5-7.6,1.27,11,10.19-19.57.75,12.08,6.85-5.41c-14.63,36.28-21.61,59.17-28.13,78.83-9.17,27-32.85,95.76-35.79,113.28-3.78,22.53-5.9,38.5.85,45.24,11.12,4.48,17.83-4,26.83-28.14,25.09-66.51,51-160.24,68.06-208.73l9.5-7.19L516.29,395,530,370.54l1.52,8.11-1,14.59,9.23-13.52,1.63,6.64,10.4-13.81,2.37,9.37C524.23,461.35,504.19,522.72,487.46,582.09Z" transform="translate(-347.75 -347.95)"/><path class="cls-2" d="M563.9,618.1l10.42,5.67L569,632.9l8.3,6-5.59,10.24-72.12,13.82,9.93-18.09-7.43-1.11,2.52-19.54-12.89,13.6-3.36-2.25c12.49-48.31,39.29-126.14,62-187.95l3.52,9.82,13.26-21.55-1.19,25,10.45-17.78,2.08,10.84L589,446.2C574.62,485.91,546.47,562.93,537.11,605l41.68-6.86,4.61,8.39Z" transform="translate(-347.75 -347.95)"/><path class="cls-2" d="M698.69,469.07l8.56,9.33-7.7,8.48,2.33,8.36-36.14,4.17c-16.2,40.95-33.84,108.17-42.68,141.49l-5.26-6.28-10.42,16.31L605.1,631l-8.21,10.92-2.73-8.9-10.38,15.45-2.62-3.22c9.42-33.49,25.79-96.32,41.16-140.82l-33.09,3.83L597,495.83l-4.44-7,13.57-8.52-3.33-9.81,14.81-6.45-13.68-7.88,2.13-8,107.07-8.85-6.68,11.4,11,6.3Z" transform="translate(-347.75 -347.95)"/><path class="cls-2" d="M705.31,631.37l-4.29-7.7-6.95,6.41,1.72-26.36L683.65,627l-4.9-9-12.39,14.89C684,563.54,708.8,484,729.24,433.62l2.67,10.79,14.63-21.83.48,21.76,10.3-10.49,2.54,9.37,10.21-8.87C751,484.3,718.07,583.1,705.31,631.37Z" transform="translate(-347.75 -347.95)"/><path class="cls-2" d="M857.88,598.54,851.71,594,844,608.19l-2.61-15.73L833,601.93l-.28-14.84-10.13,15.39-3.18,2.37,15.52-61.69-.71.11c-12.31,17.55-26,44.48-35,58.93l-4.35-7.55-7.47,8.29c-1.46-13.56-3-35.29-3-49.47l-.71.11c-6.5,17.39-15.28,47.17-20.11,63.3L760,609.34l-8.9,12.74-1.21-22.2-9.54,20.29-1.76-6.77L726,624.2C739,568.69,765.1,481.49,781.69,434.3l4.64,9.34,7.39-13.06,3.11,26.59L803.54,434l2.72,6.37,7.38-8.71C814,454,815.88,493.06,818,507c13.27-24.39,37.8-62,53.34-82.75l3.58,8.88,9.61-13.09.34,20.19L895,426.31l2.79,6,10.23-6C891,469.43,868.72,548.45,857.88,598.54Z" transform="translate(-347.75 -347.95)"/><path class="cls-2" d="M985.93,568.1l-8.63-4.19-5.64,6.65L965.27,556l-7.5,19.63-4.48-7.23L944,578.27l3.89-24-28.71,5.06L906.78,586.8l-5.85-7.53-5,6.26-1.21-17.45-13.37,21.64-1.27-9.38L863.68,590c15.55-39.83,57.26-129.47,88.72-175.28l4.7,12.09,9.81-8.12L969.78,438l16.08-22.52,6.76,7.37,11.89-8.89C998,454.19,986.53,532.39,985.93,568.1Zm-27.52-96.84c-8.72,15.71-19.53,36.8-24.45,49.56L950,518.38l8.85-47.17Z" transform="translate(-347.75 -347.95)"/><path class="cls-2" d="M1110.74,428l9,6.77-7.35,6.55,2.72,6.19L1079,451.66c-14.48,31.39-29.28,82.87-36.74,108.49l-5.58-4.52-9.79,12.86-3.17-15-7.8,8.67-3.13-6.65L1003,567.72l-2.77-2.34c8-25.94,21.84-74.4,35.37-108.71l-33.09,3.83,7.29-9.7-4.76-5.23,13.26-6.82-3.76-7.41,14.59-5.24L1015,420.38l1.8-6.12,107.06-8.85-6.18,8.67,11.37,4.46Z" transform="translate(-347.75 -347.95)"/><path class="cls-2" d="M1196.87,414.44l11.91,5.31-8.9,4.94,3.73,7.65c-10.55-.4-28.6,2.27-41,5.27l-9.3,17.11,34.32-4.52,2.57,4.65-10.86,7.56,9.63,4.59-8,6.13,5.87,4.14-2.86,5.42-41.57,5.83-5.66,20.2c11.11.48,32-4,43.35-7.22l-8.36,12.17,5.44,2.25-13.58,8,14.47,1.24-4.56,8.17c-21.23,9.19-55.26,13.44-68.08,13.51l7.78-12.54-8.5-1.82,1.12-10.35-12.68,8c6.53-36.85,21.23-74.13,36.42-105.92l4.85,4.5,8.25-6-3.38-10.75,10-1.83-3-5.84c23.12-5.14,51.09-6.72,69.28-7.09l-7.47,6.4,8.64,5.88Z" transform="translate(-347.75 -347.95)"/><path class="cls-3" d="M487.46,582.09c-5.55,19.12-23.22,57-31.23,67.43-30.14,40.33-49.32,45.61-73.91,35.5-23.65-9.52-17.9-59.94-13.59-88.75C376,550,406.08,459.84,440.11,372.34l3.67,6.57-3.73,22.5,10.79-15,2.25,4,5-7.6,1.27,11,10.19-19.57.75,12.08,6.85-5.41c-14.63,36.28-21.61,59.17-28.13,78.83-9.17,27-32.85,95.76-35.79,113.28-3.78,22.53-5.9,38.5.85,45.24,11.12,4.48,17.83-4,26.83-28.14,25.09-66.51,51-160.24,68.06-208.73l9.5-7.19L516.29,395,530,370.54l1.52,8.11-1,14.59,9.23-13.52,1.63,6.64,10.4-13.81,2.37,9.37C524.23,461.35,504.19,522.72,487.46,582.09Z" transform="translate(-347.75 -347.95)"/><path class="cls-3" d="M563.9,618.1l10.42,5.67L569,632.9l8.3,6-5.59,10.24-72.12,13.82,9.93-18.09-7.43-1.11,2.52-19.54-12.89,13.6-3.36-2.25c12.49-48.31,39.29-126.14,62-187.95l3.52,9.82,13.26-21.55-1.19,25,10.45-17.78,2.08,10.84L589,446.2C574.62,485.91,546.47,562.93,537.11,605l41.68-6.86,4.61,8.39Z" transform="translate(-347.75 -347.95)"/><path class="cls-3" d="M698.69,469.07l8.56,9.33-7.7,8.48,2.33,8.36-36.14,4.17c-16.2,40.95-33.84,108.17-42.68,141.49l-5.26-6.28-10.42,16.31L605.1,631l-8.21,10.92-2.73-8.9-10.38,15.45-2.62-3.22c9.42-33.49,25.79-96.32,41.16-140.82l-33.09,3.83L597,495.83l-4.44-7,13.57-8.52-3.33-9.81,14.81-6.45-13.68-7.88,2.13-8,107.07-8.85-6.68,11.4,11,6.3Z" transform="translate(-347.75 -347.95)"/><path class="cls-3" d="M705.31,631.37l-4.29-7.7-6.95,6.41,1.72-26.36L683.65,627l-4.9-9-12.39,14.89C684,563.54,708.8,484,729.24,433.62l2.67,10.79,14.63-21.83.48,21.76,10.3-10.49,2.54,9.37,10.21-8.87C751,484.3,718.07,583.1,705.31,631.37Z" transform="translate(-347.75 -347.95)"/><path class="cls-3" d="M857.88,598.54,851.71,594,844,608.19l-2.61-15.73L833,601.93l-.28-14.84-10.13,15.39-3.18,2.37,15.52-61.69-.71.11c-12.31,17.55-26,44.48-35,58.93l-4.35-7.55-7.47,8.29c-1.46-13.56-3-35.29-3-49.47l-.71.11c-6.5,17.39-15.28,47.17-20.11,63.3L760,609.34l-8.9,12.74-1.21-22.2-9.54,20.29-1.76-6.77L726,624.2C739,568.69,765.1,481.49,781.69,434.3l4.64,9.34,7.39-13.06,3.11,26.59L803.54,434l2.72,6.37,7.38-8.71C814,454,815.88,493.06,818,507c13.27-24.39,37.8-62,53.34-82.75l3.58,8.88,9.61-13.09.34,20.19L895,426.31l2.79,6,10.23-6C891,469.43,868.72,548.45,857.88,598.54Z" transform="translate(-347.75 -347.95)"/><path class="cls-3" d="M985.93,568.1l-8.63-4.19-5.64,6.65L965.27,556l-7.5,19.63-4.48-7.23L944,578.27l3.89-24-28.71,5.06L906.78,586.8l-5.85-7.53-5,6.26-1.21-17.45-13.37,21.64-1.27-9.38L863.68,590c15.55-39.83,57.26-129.47,88.72-175.28l4.7,12.09,9.81-8.12L969.78,438l16.08-22.52,6.76,7.37,11.89-8.89C998,454.19,986.53,532.39,985.93,568.1Zm-27.52-96.84c-8.72,15.71-19.53,36.8-24.45,49.56L950,518.38l8.85-47.17Z" transform="translate(-347.75 -347.95)"/><path class="cls-3" d="M1110.74,428l9,6.77-7.35,6.55,2.72,6.19L1079,451.66c-14.48,31.39-29.28,82.87-36.74,108.49l-5.58-4.52-9.79,12.86-3.17-15-7.8,8.67-3.13-6.65L1003,567.72l-2.77-2.34c8-25.94,21.84-74.4,35.37-108.71l-33.09,3.83,7.29-9.7-4.76-5.23,13.26-6.82-3.76-7.41,14.59-5.24L1015,420.38l1.8-6.12,107.06-8.85-6.18,8.67,11.37,4.46Z" transform="translate(-347.75 -347.95)"/><path class="cls-3" d="M1196.87,414.44l11.91,5.31-8.9,4.94,3.73,7.65c-10.55-.4-28.6,2.27-41,5.27l-9.3,17.11,34.32-4.52,2.57,4.65-10.86,7.56,9.63,4.59-8,6.13,5.87,4.14-2.86,5.42-41.57,5.83-5.66,20.2c11.11.48,32-4,43.35-7.22l-8.36,12.17,5.44,2.25-13.58,8,14.47,1.24-4.56,8.17c-21.23,9.19-55.26,13.44-68.08,13.51l7.78-12.54-8.5-1.82,1.12-10.35-12.68,8c6.53-36.85,21.23-74.13,36.42-105.92l4.85,4.5,8.25-6-3.38-10.75,10-1.83-3-5.84c23.12-5.14,51.09-6.72,69.28-7.09l-7.47,6.4,8.64,5.88Z" transform="translate(-347.75 -347.95)"/><path class="cls-3" d="M487.46,582.09c-5.55,19.12-23.22,57-31.23,67.43-30.14,40.33-49.32,45.61-73.91,35.5-23.65-9.52-17.9-59.94-13.59-88.75C376,550,406.08,459.84,440.11,372.34l3.67,6.57-3.73,22.5,10.79-15,2.25,4,5-7.6,1.27,11,10.19-19.57.75,12.08,6.85-5.41c-14.63,36.28-21.61,59.17-28.13,78.83-9.17,27-32.85,95.76-35.79,113.28-3.78,22.53-5.9,38.5.85,45.24,11.12,4.48,17.83-4,26.83-28.14,25.09-66.51,51-160.24,68.06-208.73l9.5-7.19L516.29,395,530,370.54l1.52,8.11-1,14.59,9.23-13.52,1.63,6.64,10.4-13.81,2.37,9.37C524.23,461.35,504.19,522.72,487.46,582.09Z" transform="translate(-347.75 -347.95)"/><path class="cls-3" d="M563.9,618.1l10.42,5.67L569,632.9l8.3,6-5.59,10.24-72.12,13.82,9.93-18.09-7.43-1.11,2.52-19.54-12.89,13.6-3.36-2.25c12.49-48.31,39.29-126.14,62-187.95l3.52,9.82,13.26-21.55-1.19,25,10.45-17.78,2.08,10.84L589,446.2C574.62,485.91,546.47,562.93,537.11,605l41.68-6.86,4.61,8.39Z" transform="translate(-347.75 -347.95)"/><path class="cls-3" d="M698.69,469.07l8.56,9.33-7.7,8.48,2.33,8.36-36.14,4.17c-16.2,40.95-33.84,108.17-42.68,141.49l-5.26-6.28-10.42,16.31L605.1,631l-8.21,10.92-2.73-8.9-10.38,15.45-2.62-3.22c9.42-33.49,25.79-96.32,41.16-140.82l-33.09,3.83L597,495.83l-4.44-7,13.57-8.52-3.33-9.81,14.81-6.45-13.68-7.88,2.13-8,107.07-8.85-6.68,11.4,11,6.3Z" transform="translate(-347.75 -347.95)"/><path class="cls-3" d="M705.31,631.37l-4.29-7.7-6.95,6.41,1.72-26.36L683.65,627l-4.9-9-12.39,14.89C684,563.54,708.8,484,729.24,433.62l2.67,10.79,14.63-21.83.48,21.76,10.3-10.49,2.54,9.37,10.21-8.87C751,484.3,718.07,583.1,705.31,631.37Z" transform="translate(-347.75 -347.95)"/><path class="cls-3" d="M857.88,598.54,851.71,594,844,608.19l-2.61-15.73L833,601.93l-.28-14.84-10.13,15.39-3.18,2.37,15.52-61.69-.71.11c-12.31,17.55-26,44.48-35,58.93l-4.35-7.55-7.47,8.29c-1.46-13.56-3-35.29-3-49.47l-.71.11c-6.5,17.39-15.28,47.17-20.11,63.3L760,609.34l-8.9,12.74-1.21-22.2-9.54,20.29-1.76-6.77L726,624.2C739,568.69,765.1,481.49,781.69,434.3l4.64,9.34,7.39-13.06,3.11,26.59L803.54,434l2.72,6.37,7.38-8.71C814,454,815.88,493.06,818,507c13.27-24.39,37.8-62,53.34-82.75l3.58,8.88,9.61-13.09.34,20.19L895,426.31l2.79,6,10.23-6C891,469.43,868.72,548.45,857.88,598.54Z" transform="translate(-347.75 -347.95)"/><path class="cls-3" d="M985.93,568.1l-8.63-4.19-5.64,6.65L965.27,556l-7.5,19.63-4.48-7.23L944,578.27l3.89-24-28.71,5.06L906.78,586.8l-5.85-7.53-5,6.26-1.21-17.45-13.37,21.64-1.27-9.38L863.68,590c15.55-39.83,57.26-129.47,88.72-175.28l4.7,12.09,9.81-8.12L969.78,438l16.08-22.52,6.76,7.37,11.89-8.89C998,454.19,986.53,532.39,985.93,568.1Zm-27.52-96.84c-8.72,15.71-19.53,36.8-24.45,49.56L950,518.38l8.85-47.17Z" transform="translate(-347.75 -347.95)"/><path class="cls-3" d="M1110.74,428l9,6.77-7.35,6.55,2.72,6.19L1079,451.66c-14.48,31.39-29.28,82.87-36.74,108.49l-5.58-4.52-9.79,12.86-3.17-15-7.8,8.67-3.13-6.65L1003,567.72l-2.77-2.34c8-25.94,21.84-74.4,35.37-108.71l-33.09,3.83,7.29-9.7-4.76-5.23,13.26-6.82-3.76-7.41,14.59-5.24L1015,420.38l1.8-6.12,107.06-8.85-6.18,8.67,11.37,4.46Z" transform="translate(-347.75 -347.95)"/><path class="cls-3" d="M1196.87,414.44l11.91,5.31-8.9,4.94,3.73,7.65c-10.55-.4-28.6,2.27-41,5.27l-9.3,17.11,34.32-4.52,2.57,4.65-10.86,7.56,9.63,4.59-8,6.13,5.87,4.14-2.86,5.42-41.57,5.83-5.66,20.2c11.11.48,32-4,43.35-7.22l-8.36,12.17,5.44,2.25-13.58,8,14.47,1.24-4.56,8.17c-21.23,9.19-55.26,13.44-68.08,13.51l7.78-12.54-8.5-1.82,1.12-10.35-12.68,8c6.53-36.85,21.23-74.13,36.42-105.92l4.85,4.5,8.25-6-3.38-10.75,10-1.83-3-5.84c23.12-5.14,51.09-6.72,69.28-7.09l-7.47,6.4,8.64,5.88Z" transform="translate(-347.75 -347.95)"/><path d="M487.46,582.09c-5.55,19.12-23.22,57-31.23,67.43-30.14,40.33-49.32,45.61-73.91,35.5-23.65-9.52-17.9-59.94-13.59-88.75C376,550,406.08,459.84,440.11,372.34l3.67,6.57-3.73,22.5,10.79-15,2.25,4,5-7.6,1.27,11,10.19-19.57.75,12.08,6.85-5.41c-14.63,36.28-21.61,59.17-28.13,78.83-9.17,27-32.85,95.76-35.79,113.28-3.78,22.53-5.9,38.5.85,45.24,11.12,4.48,17.83-4,26.83-28.14,25.09-66.51,51-160.24,68.06-208.73l9.5-7.19L516.29,395,530,370.54l1.52,8.11-1,14.59,9.23-13.52,1.63,6.64,10.4-13.81,2.37,9.37C524.23,461.35,504.19,522.72,487.46,582.09Z" transform="translate(-347.75 -347.95)"/><path d="M563.9,618.1l10.42,5.67L569,632.9l8.3,6-5.59,10.24-72.12,13.82,9.93-18.09-7.43-1.11,2.52-19.54-12.89,13.6-3.36-2.25c12.49-48.31,39.29-126.14,62-187.95l3.52,9.82,13.26-21.55-1.19,25,10.45-17.78,2.08,10.84L589,446.2C574.62,485.91,546.47,562.93,537.11,605l41.68-6.86,4.61,8.39Z" transform="translate(-347.75 -347.95)"/><path d="M698.69,469.07l8.56,9.33-7.7,8.48,2.33,8.36-36.14,4.17c-16.2,40.95-33.84,108.17-42.68,141.49l-5.26-6.28-10.42,16.31L605.1,631l-8.21,10.92-2.73-8.9-10.38,15.45-2.62-3.22c9.42-33.49,25.79-96.32,41.16-140.82l-33.09,3.83L597,495.83l-4.44-7,13.57-8.52-3.33-9.81,14.81-6.45-13.68-7.88,2.13-8,107.07-8.85-6.68,11.4,11,6.3Z" transform="translate(-347.75 -347.95)"/><path d="M705.31,631.37l-4.29-7.7-6.95,6.41,1.72-26.36L683.65,627l-4.9-9-12.39,14.89C684,563.54,708.8,484,729.24,433.62l2.67,10.79,14.63-21.83.48,21.76,10.3-10.49,2.54,9.37,10.21-8.87C751,484.3,718.07,583.1,705.31,631.37Z" transform="translate(-347.75 -347.95)"/><path d="M857.88,598.54,851.71,594,844,608.19l-2.61-15.73L833,601.93l-.28-14.84-10.13,15.39-3.18,2.37,15.52-61.69-.71.11c-12.31,17.55-26,44.48-35,58.93l-4.35-7.55-7.47,8.29c-1.46-13.56-3-35.29-3-49.47l-.71.11c-6.5,17.39-15.28,47.17-20.11,63.3L760,609.34l-8.9,12.74-1.21-22.2-9.54,20.29-1.76-6.77L726,624.2C739,568.69,765.1,481.49,781.69,434.3l4.64,9.34,7.39-13.06,3.11,26.59L803.54,434l2.72,6.37,7.38-8.71C814,454,815.88,493.06,818,507c13.27-24.39,37.8-62,53.34-82.75l3.58,8.88,9.61-13.09.34,20.19L895,426.31l2.79,6,10.23-6C891,469.43,868.72,548.45,857.88,598.54Z" transform="translate(-347.75 -347.95)"/><path d="M985.93,568.1l-8.63-4.19-5.64,6.65L965.27,556l-7.5,19.63-4.48-7.23L944,578.27l3.89-24-28.71,5.06L906.78,586.8l-5.85-7.53-5,6.26-1.21-17.45-13.37,21.64-1.27-9.38L863.68,590c15.55-39.83,57.26-129.47,88.72-175.28l4.7,12.09,9.81-8.12L969.78,438l16.08-22.52,6.76,7.37,11.89-8.89C998,454.19,986.53,532.39,985.93,568.1Zm-27.52-96.84c-8.72,15.71-19.53,36.8-24.45,49.56L950,518.38l8.85-47.17Z" transform="translate(-347.75 -347.95)"/><path d="M1110.74,428l9,6.77-7.35,6.55,2.72,6.19L1079,451.66c-14.48,31.39-29.28,82.87-36.74,108.49l-5.58-4.52-9.79,12.86-3.17-15-7.8,8.67-3.13-6.65L1003,567.72l-2.77-2.34c8-25.94,21.84-74.4,35.37-108.71l-33.09,3.83,7.29-9.7-4.76-5.23,13.26-6.82-3.76-7.41,14.59-5.24L1015,420.38l1.8-6.12,107.06-8.85-6.18,8.67,11.37,4.46Z" transform="translate(-347.75 -347.95)"/><path d="M1196.87,414.44l11.91,5.31-8.9,4.94,3.73,7.65c-10.55-.4-28.6,2.27-41,5.27l-9.3,17.11,34.32-4.52,2.57,4.65-10.86,7.56,9.63,4.59-8,6.13,5.87,4.14-2.86,5.42-41.57,5.83-5.66,20.2c11.11.48,32-4,43.35-7.22l-8.36,12.17,5.44,2.25-13.58,8,14.47,1.24-4.56,8.17c-21.23,9.19-55.26,13.44-68.08,13.51l7.78-12.54-8.5-1.82,1.12-10.35-12.68,8c6.53-36.85,21.23-74.13,36.42-105.92l4.85,4.5,8.25-6-3.38-10.75,10-1.83-3-5.84c23.12-5.14,51.09-6.72,69.28-7.09l-7.47,6.4,8.64,5.88Z" transform="translate(-347.75 -347.95)"/><path class="cls-1" d="M487.46,582.09c-5.55,19.12-23.22,57-31.23,67.43-30.14,40.33-49.32,45.61-73.91,35.5-23.65-9.52-17.9-59.94-13.59-88.75C376,550,406.08,459.84,440.11,372.34l3.67,6.57-3.73,22.5,10.79-15,2.25,4,5-7.6,1.27,11,10.19-19.57.75,12.08,6.85-5.41c-14.63,36.28-21.61,59.17-28.13,78.83-9.17,27-32.85,95.76-35.79,113.28-3.78,22.53-5.9,38.5.85,45.24,11.12,4.48,17.83-4,26.83-28.14,25.09-66.51,51-160.24,68.06-208.73l9.5-7.19L516.29,395,530,370.54l1.52,8.11-1,14.59,9.23-13.52,1.63,6.64,10.4-13.81,2.37,9.37C524.23,461.35,504.19,522.72,487.46,582.09Z" transform="translate(-347.75 -347.95)"/><path class="cls-1" d="M563.9,618.1l10.42,5.67L569,632.9l8.3,6-5.59,10.24-72.12,13.82,9.93-18.09-7.43-1.11,2.52-19.54-12.89,13.6-3.36-2.25c12.49-48.31,39.29-126.14,62-187.95l3.52,9.82,13.26-21.55-1.19,25,10.45-17.78,2.08,10.84L589,446.2C574.62,485.91,546.47,562.93,537.11,605l41.68-6.86,4.61,8.39Z" transform="translate(-347.75 -347.95)"/><path class="cls-1" d="M698.69,469.07l8.56,9.33-7.7,8.48,2.33,8.36-36.14,4.17c-16.2,40.95-33.84,108.17-42.68,141.49l-5.26-6.28-10.42,16.31L605.1,631l-8.21,10.92-2.73-8.9-10.38,15.45-2.62-3.22c9.42-33.49,25.79-96.32,41.16-140.82l-33.09,3.83L597,495.83l-4.44-7,13.57-8.52-3.33-9.81,14.81-6.45-13.68-7.88,2.13-8,107.07-8.85-6.68,11.4,11,6.3Z" transform="translate(-347.75 -347.95)"/><path class="cls-1" d="M705.31,631.37l-4.29-7.7-6.95,6.41,1.72-26.36L683.65,627l-4.9-9-12.39,14.89C684,563.54,708.8,484,729.24,433.62l2.67,10.79,14.63-21.83.48,21.76,10.3-10.49,2.54,9.37,10.21-8.87C751,484.3,718.07,583.1,705.31,631.37Z" transform="translate(-347.75 -347.95)"/><path class="cls-1" d="M857.88,598.54,851.71,594,844,608.19l-2.61-15.73L833,601.93l-.28-14.84-10.13,15.39-3.18,2.37,15.52-61.69-.71.11c-12.31,17.55-26,44.48-35,58.93l-4.35-7.55-7.47,8.29c-1.46-13.56-3-35.29-3-49.47l-.71.11c-6.5,17.39-15.28,47.17-20.11,63.3L760,609.34l-8.9,12.74-1.21-22.2-9.54,20.29-1.76-6.77L726,624.2C739,568.69,765.1,481.49,781.69,434.3l4.64,9.34,7.39-13.06,3.11,26.59L803.54,434l2.72,6.37,7.38-8.71C814,454,815.88,493.06,818,507c13.27-24.39,37.8-62,53.34-82.75l3.58,8.88,9.61-13.09.34,20.19L895,426.31l2.79,6,10.23-6C891,469.43,868.72,548.45,857.88,598.54Z" transform="translate(-347.75 -347.95)"/><path class="cls-1" d="M985.93,568.1l-8.63-4.19-5.64,6.65L965.27,556l-7.5,19.63-4.48-7.23L944,578.27l3.89-24-28.71,5.06L906.78,586.8l-5.85-7.53-5,6.26-1.21-17.45-13.37,21.64-1.27-9.38L863.68,590c15.55-39.83,57.26-129.47,88.72-175.28l4.7,12.09,9.81-8.12L969.78,438l16.08-22.52,6.76,7.37,11.89-8.89C998,454.19,986.53,532.39,985.93,568.1Zm-27.52-96.84c-8.72,15.71-19.53,36.8-24.45,49.56L950,518.38l8.85-47.17Z" transform="translate(-347.75 -347.95)"/><path class="cls-1" d="M1110.74,428l9,6.77-7.35,6.55,2.72,6.19L1079,451.66c-14.48,31.39-29.28,82.87-36.74,108.49l-5.58-4.52-9.79,12.86-3.17-15-7.8,8.67-3.13-6.65L1003,567.72l-2.77-2.34c8-25.94,21.84-74.4,35.37-108.71l-33.09,3.83,7.29-9.7-4.76-5.23,13.26-6.82-3.76-7.41,14.59-5.24L1015,420.38l1.8-6.12,107.06-8.85-6.18,8.67,11.37,4.46Z" transform="translate(-347.75 -347.95)"/><path class="cls-1" d="M1196.87,414.44l11.91,5.31-8.9,4.94,3.73,7.65c-10.55-.4-28.6,2.27-41,5.27l-9.3,17.11,34.32-4.52,2.57,4.65-10.86,7.56,9.63,4.59-8,6.13,5.87,4.14-2.86,5.42-41.57,5.83-5.66,20.2c11.11.48,32-4,43.35-7.22l-8.36,12.17,5.44,2.25-13.58,8,14.47,1.24-4.56,8.17c-21.23,9.19-55.26,13.44-68.08,13.51l7.78-12.54-8.5-1.82,1.12-10.35-12.68,8c6.53-36.85,21.23-74.13,36.42-105.92l4.85,4.5,8.25-6-3.38-10.75,10-1.83-3-5.84c23.12-5.14,51.09-6.72,69.28-7.09l-7.47,6.4,8.64,5.88Z" transform="translate(-347.75 -347.95)"/></g><g id="Layer_2" data-name="Layer 2"><path class="cls-1" d="M470.88,561c-5.55,19.12-23.21,57-31.22,67.43-30.14,40.33-49.32,45.61-73.91,35.5-23.65-9.52-17.9-59.94-13.59-88.75,7.27-46.25,37.34-136.44,71.38-223.93l3.67,6.57-3.74,22.49,10.8-15,2.25,4,4.94-7.61,1.28,11,10.19-19.56.75,12.08,6.85-5.42c-14.63,36.29-21.61,59.18-28.14,78.84-9.16,27-32.84,95.75-35.78,113.28-3.78,22.52-5.9,38.5.84,45.23,11.13,4.48,17.83-4,26.84-28.13,25.09-66.51,51-160.24,68.06-208.73l9.5-7.19-2.13,20.83,13.69-24.47,1.52,8.11-1,14.59,9.24-13.52,1.63,6.63,10.39-13.8,2.38,9.37C507.66,440.21,487.62,501.57,470.88,561Z" transform="translate(-347.75 -347.95)"/><path class="cls-1" d="M547.33,597l10.42,5.68-5.28,9.13,8.3,6-5.59,10.23-72.12,13.83L493,623.68l-7.43-1.12L488.08,603l-12.9,13.61-3.36-2.26c12.5-48.31,39.3-126.13,62.05-187.95l3.52,9.83,13.26-21.55-1.19,25,10.45-17.78L562,432.78l10.47-7.72c-14.41,39.71-42.56,116.73-51.92,158.83L562.22,577l4.61,8.39Z" transform="translate(-347.75 -347.95)"/><path class="cls-1" d="M682.12,447.92l8.55,9.34L683,465.74l2.32,8.35-36.13,4.18c-16.2,41-33.84,108.16-42.69,141.49l-5.25-6.29-10.42,16.31-2.29-19.93-8.2,10.92-2.73-8.89-10.38,15.45-2.62-3.22c9.42-33.49,25.79-96.32,41.16-140.82l-33.09,3.82,7.78-12.42-4.44-7,13.57-8.51-3.34-9.82,14.82-6.44L587.37,435l2.13-8,107.07-8.85-6.68,11.4,11,6.3Z" transform="translate(-347.75 -347.95)"/><path class="cls-1" d="M688.73,610.22l-4.28-7.69-7,6.41,1.71-26.37-12.13,23.28-4.9-9-12.39,14.89c17.62-69.34,42.44-148.93,62.88-199.26l2.67,10.78L730,401.44l.47,21.76,10.31-10.49,2.54,9.37,10.21-8.87C734.39,463.16,701.5,562,688.73,610.22Z" transform="translate(-347.75 -347.95)"/><path class="cls-1" d="M841.31,577.4l-6.18-4.57-7.7,14.22-2.61-15.74-8.45,9.48L816.1,566,806,581.33l-3.18,2.38L818.31,522l-.71.11c-12.31,17.54-26,44.48-35,58.93l-4.35-7.55-7.47,8.29c-1.46-13.56-3-35.29-3-49.48l-.71.12c-6.5,17.39-15.29,47.16-20.11,63.3l-3.62-7.54-8.91,12.74-1.2-22.2L723.74,599,722,592.25l-12.59,10.8c13.07-55.5,39.14-142.71,55.72-189.89l4.65,9.33,7.38-13.05L780.26,436,787,412.85l2.71,6.37,7.39-8.71c.34,22.34,2.23,61.4,4.39,75.37,13.27-24.39,37.8-62,53.34-82.75l3.58,8.88L868,398.92l.34,20.19,10.1-13.94,2.79,6,10.23-5.95C874.37,448.28,852.15,527.31,841.31,577.4Z" transform="translate(-347.75 -347.95)"/><path class="cls-1" d="M969.35,547l-8.62-4.19-5.65,6.64-6.38-14.57-7.5,19.64-4.48-7.23-9.32,9.88,3.89-24-28.71,5.06-12.37,27.51-5.85-7.53-5,6.26-1.2-17.45-13.37,21.64-1.27-9.39-16.45,9.64c15.56-39.83,57.27-129.48,88.72-175.28l4.71,12.09,9.81-8.13,2.87,19.35,16.08-22.51,6.76,7.37,11.89-8.89C981.42,433.05,970,511.24,969.35,547Zm-27.51-96.84c-8.72,15.71-19.53,36.79-24.45,49.56l16.07-2.44,8.85-47.18Z" transform="translate(-347.75 -347.95)"/><path class="cls-1" d="M1094.17,406.83l9,6.76-7.35,6.56,2.72,6.19-36.14,4.17c-14.48,31.4-29.28,82.88-36.74,108.5l-5.58-4.52-9.79,12.86-3.17-15-7.8,8.68-3.13-6.65-9.81,12.24-2.77-2.34c8-25.94,21.84-74.4,35.37-108.71l-33.09,3.83,7.29-9.7-4.76-5.23,13.26-6.83-3.76-7.4,14.59-5.25-14.06-5.71,1.8-6.12,107.06-8.85-6.18,8.67,11.37,4.45Z" transform="translate(-347.75 -347.95)"/><path class="cls-1" d="M1180.3,393.3l11.91,5.31-8.9,4.93,3.73,7.66c-10.55-.41-28.6,2.27-41,5.26l-9.3,17.12,34.32-4.52,2.56,4.65-10.85,7.56,9.63,4.59-8,6.12,5.87,4.15-2.86,5.42-41.57,5.82-5.66,20.2c11.11.49,32-3.94,43.35-7.21l-8.36,12.17,5.43,2.24-13.57,8,14.47,1.24-4.57,8.17c-21.23,9.18-55.25,13.44-68.07,13.51l7.78-12.54-8.5-1.83,1.11-10.34-12.67,8c6.53-36.85,21.23-74.13,36.41-105.92l4.86,4.49,8.25-6-3.38-10.75,10-1.83-3-5.84c23.12-5.14,51.09-6.72,69.28-7.09l-7.47,6.4,8.64,5.87Z" transform="translate(-347.75 -347.95)"/><path class="cls-4" d="M470.88,561c-5.55,19.12-23.21,57-31.22,67.43-30.14,40.33-49.32,45.61-73.91,35.5-23.65-9.52-17.9-59.94-13.59-88.75,7.27-46.25,37.34-136.44,71.38-223.93l3.67,6.57-3.74,22.49,10.8-15,2.25,4,4.94-7.61,1.28,11,10.19-19.56.75,12.08,6.85-5.42c-14.63,36.29-21.61,59.18-28.14,78.84-9.16,27-32.84,95.75-35.78,113.28-3.78,22.52-5.9,38.5.84,45.23,11.13,4.48,17.83-4,26.84-28.13,25.09-66.51,51-160.24,68.06-208.73l9.5-7.19-2.13,20.83,13.69-24.47,1.52,8.11-1,14.59,9.24-13.52,1.63,6.63,10.39-13.8,2.38,9.37C507.66,440.21,487.62,501.57,470.88,561Z" transform="translate(-347.75 -347.95)"/><path class="cls-4" d="M547.33,597l10.42,5.68-5.28,9.13,8.3,6-5.59,10.23-72.12,13.83L493,623.68l-7.43-1.12L488.08,603l-12.9,13.61-3.36-2.26c12.5-48.31,39.3-126.13,62.05-187.95l3.52,9.83,13.26-21.55-1.19,25,10.45-17.78L562,432.78l10.47-7.72c-14.41,39.71-42.56,116.73-51.92,158.83L562.22,577l4.61,8.39Z" transform="translate(-347.75 -347.95)"/><path class="cls-4" d="M682.12,447.92l8.55,9.34L683,465.74l2.32,8.35-36.13,4.18c-16.2,41-33.84,108.16-42.69,141.49l-5.25-6.29-10.42,16.31-2.29-19.93-8.2,10.92-2.73-8.89-10.38,15.45-2.62-3.22c9.42-33.49,25.79-96.32,41.16-140.82l-33.09,3.82,7.78-12.42-4.44-7,13.57-8.51-3.34-9.82,14.82-6.44L587.37,435l2.13-8,107.07-8.85-6.68,11.4,11,6.3Z" transform="translate(-347.75 -347.95)"/><path class="cls-4" d="M688.73,610.22l-4.28-7.69-7,6.41,1.71-26.37-12.13,23.28-4.9-9-12.39,14.89c17.62-69.34,42.44-148.93,62.88-199.26l2.67,10.78L730,401.44l.47,21.76,10.31-10.49,2.54,9.37,10.21-8.87C734.39,463.16,701.5,562,688.73,610.22Z" transform="translate(-347.75 -347.95)"/><path class="cls-4" d="M841.31,577.4l-6.18-4.57-7.7,14.22-2.61-15.74-8.45,9.48L816.1,566,806,581.33l-3.18,2.38L818.31,522l-.71.11c-12.31,17.54-26,44.48-35,58.93l-4.35-7.55-7.47,8.29c-1.46-13.56-3-35.29-3-49.48l-.71.12c-6.5,17.39-15.29,47.16-20.11,63.3l-3.62-7.54-8.91,12.74-1.2-22.2L723.74,599,722,592.25l-12.59,10.8c13.07-55.5,39.14-142.71,55.72-189.89l4.65,9.33,7.38-13.05L780.26,436,787,412.85l2.71,6.37,7.39-8.71c.34,22.34,2.23,61.4,4.39,75.37,13.27-24.39,37.8-62,53.34-82.75l3.58,8.88L868,398.92l.34,20.19,10.1-13.94,2.79,6,10.23-5.95C874.37,448.28,852.15,527.31,841.31,577.4Z" transform="translate(-347.75 -347.95)"/><path class="cls-4" d="M969.35,547l-8.62-4.19-5.65,6.64-6.38-14.57-7.5,19.64-4.48-7.23-9.32,9.88,3.89-24-28.71,5.06-12.37,27.51-5.85-7.53-5,6.26-1.2-17.45-13.37,21.64-1.27-9.39-16.45,9.64c15.56-39.83,57.27-129.48,88.72-175.28l4.71,12.09,9.81-8.13,2.87,19.35,16.08-22.51,6.76,7.37,11.89-8.89C981.42,433.05,970,511.24,969.35,547Zm-27.51-96.84c-8.72,15.71-19.53,36.79-24.45,49.56l16.07-2.44,8.85-47.18Z" transform="translate(-347.75 -347.95)"/><path class="cls-4" d="M1094.17,406.83l9,6.76-7.35,6.56,2.72,6.19-36.14,4.17c-14.48,31.4-29.28,82.88-36.74,108.5l-5.58-4.52-9.79,12.86-3.17-15-7.8,8.68-3.13-6.65-9.81,12.24-2.77-2.34c8-25.94,21.84-74.4,35.37-108.71l-33.09,3.83,7.29-9.7-4.76-5.23,13.26-6.83-3.76-7.4,14.59-5.25-14.06-5.71,1.8-6.12,107.06-8.85-6.18,8.67,11.37,4.45Z" transform="translate(-347.75 -347.95)"/><path class="cls-4" d="M1180.3,393.3l11.91,5.31-8.9,4.93,3.73,7.66c-10.55-.41-28.6,2.27-41,5.26l-9.3,17.12,34.32-4.52,2.56,4.65-10.85,7.56,9.63,4.59-8,6.12,5.87,4.15-2.86,5.42-41.57,5.82-5.66,20.2c11.11.49,32-3.94,43.35-7.21l-8.36,12.17,5.43,2.24-13.57,8,14.47,1.24-4.57,8.17c-21.23,9.18-55.25,13.44-68.07,13.51l7.78-12.54-8.5-1.83,1.11-10.34-12.67,8c6.53-36.85,21.23-74.13,36.41-105.92l4.86,4.49,8.25-6-3.38-10.75,10-1.83-3-5.84c23.12-5.14,51.09-6.72,69.28-7.09l-7.47,6.4,8.64,5.87Z" transform="translate(-347.75 -347.95)"/><path class="cls-4" d="M470.88,561c-5.55,19.12-23.21,57-31.22,67.43-30.14,40.33-49.32,45.61-73.91,35.5-23.65-9.52-17.9-59.94-13.59-88.75,7.27-46.25,37.34-136.44,71.38-223.93l3.67,6.57-3.74,22.49,10.8-15,2.25,4,4.94-7.61,1.28,11,10.19-19.56.75,12.08,6.85-5.42c-14.63,36.29-21.61,59.18-28.14,78.84-9.16,27-32.84,95.75-35.78,113.28-3.78,22.52-5.9,38.5.84,45.23,11.13,4.48,17.83-4,26.84-28.13,25.09-66.51,51-160.24,68.06-208.73l9.5-7.19-2.13,20.83,13.69-24.47,1.52,8.11-1,14.59,9.24-13.52,1.63,6.63,10.39-13.8,2.38,9.37C507.66,440.21,487.62,501.57,470.88,561Z" transform="translate(-347.75 -347.95)"/><path class="cls-4" d="M547.33,597l10.42,5.68-5.28,9.13,8.3,6-5.59,10.23-72.12,13.83L493,623.68l-7.43-1.12L488.08,603l-12.9,13.61-3.36-2.26c12.5-48.31,39.3-126.13,62.05-187.95l3.52,9.83,13.26-21.55-1.19,25,10.45-17.78L562,432.78l10.47-7.72c-14.41,39.71-42.56,116.73-51.92,158.83L562.22,577l4.61,8.39Z" transform="translate(-347.75 -347.95)"/><path class="cls-4" d="M682.12,447.92l8.55,9.34L683,465.74l2.32,8.35-36.13,4.18c-16.2,41-33.84,108.16-42.69,141.49l-5.25-6.29-10.42,16.31-2.29-19.93-8.2,10.92-2.73-8.89-10.38,15.45-2.62-3.22c9.42-33.49,25.79-96.32,41.16-140.82l-33.09,3.82,7.78-12.42-4.44-7,13.57-8.51-3.34-9.82,14.82-6.44L587.37,435l2.13-8,107.07-8.85-6.68,11.4,11,6.3Z" transform="translate(-347.75 -347.95)"/><path class="cls-4" d="M688.73,610.22l-4.28-7.69-7,6.41,1.71-26.37-12.13,23.28-4.9-9-12.39,14.89c17.62-69.34,42.44-148.93,62.88-199.26l2.67,10.78L730,401.44l.47,21.76,10.31-10.49,2.54,9.37,10.21-8.87C734.39,463.16,701.5,562,688.73,610.22Z" transform="translate(-347.75 -347.95)"/><path class="cls-4" d="M841.31,577.4l-6.18-4.57-7.7,14.22-2.61-15.74-8.45,9.48L816.1,566,806,581.33l-3.18,2.38L818.31,522l-.71.11c-12.31,17.54-26,44.48-35,58.93l-4.35-7.55-7.47,8.29c-1.46-13.56-3-35.29-3-49.48l-.71.12c-6.5,17.39-15.29,47.16-20.11,63.3l-3.62-7.54-8.91,12.74-1.2-22.2L723.74,599,722,592.25l-12.59,10.8c13.07-55.5,39.14-142.71,55.72-189.89l4.65,9.33,7.38-13.05L780.26,436,787,412.85l2.71,6.37,7.39-8.71c.34,22.34,2.23,61.4,4.39,75.37,13.27-24.39,37.8-62,53.34-82.75l3.58,8.88L868,398.92l.34,20.19,10.1-13.94,2.79,6,10.23-5.95C874.37,448.28,852.15,527.31,841.31,577.4Z" transform="translate(-347.75 -347.95)"/><path class="cls-4" d="M969.35,547l-8.62-4.19-5.65,6.64-6.38-14.57-7.5,19.64-4.48-7.23-9.32,9.88,3.89-24-28.71,5.06-12.37,27.51-5.85-7.53-5,6.26-1.2-17.45-13.37,21.64-1.27-9.39-16.45,9.64c15.56-39.83,57.27-129.48,88.72-175.28l4.71,12.09,9.81-8.13,2.87,19.35,16.08-22.51,6.76,7.37,11.89-8.89C981.42,433.05,970,511.24,969.35,547Zm-27.51-96.84c-8.72,15.71-19.53,36.79-24.45,49.56l16.07-2.44,8.85-47.18Z" transform="translate(-347.75 -347.95)"/><path class="cls-4" d="M1094.17,406.83l9,6.76-7.35,6.56,2.72,6.19-36.14,4.17c-14.48,31.4-29.28,82.88-36.74,108.5l-5.58-4.52-9.79,12.86-3.17-15-7.8,8.68-3.13-6.65-9.81,12.24-2.77-2.34c8-25.94,21.84-74.4,35.37-108.71l-33.09,3.83,7.29-9.7-4.76-5.23,13.26-6.83-3.76-7.4,14.59-5.25-14.06-5.71,1.8-6.12,107.06-8.85-6.18,8.67,11.37,4.45Z" transform="translate(-347.75 -347.95)"/><path class="cls-4" d="M1180.3,393.3l11.91,5.31-8.9,4.93,3.73,7.66c-10.55-.41-28.6,2.27-41,5.26l-9.3,17.12,34.32-4.52,2.56,4.65-10.85,7.56,9.63,4.59-8,6.12,5.87,4.15-2.86,5.42-41.57,5.82-5.66,20.2c11.11.49,32-3.94,43.35-7.21l-8.36,12.17,5.43,2.24-13.57,8,14.47,1.24-4.57,8.17c-21.23,9.18-55.25,13.44-68.07,13.51l7.78-12.54-8.5-1.83,1.11-10.34-12.67,8c6.53-36.85,21.23-74.13,36.41-105.92l4.86,4.49,8.25-6-3.38-10.75,10-1.83-3-5.84c23.12-5.14,51.09-6.72,69.28-7.09l-7.47,6.4,8.64,5.87Z" transform="translate(-347.75 -347.95)"/><path class="cls-4" d="M470.88,561c-5.55,19.12-23.21,57-31.22,67.43-30.14,40.33-49.32,45.61-73.91,35.5-23.65-9.52-17.9-59.94-13.59-88.75,7.27-46.25,37.34-136.44,71.38-223.93l3.67,6.57-3.74,22.49,10.8-15,2.25,4,4.94-7.61,1.28,11,10.19-19.56.75,12.08,6.85-5.42c-14.63,36.29-21.61,59.18-28.14,78.84-9.16,27-32.84,95.75-35.78,113.28-3.78,22.52-5.9,38.5.84,45.23,11.13,4.48,17.83-4,26.84-28.13,25.09-66.51,51-160.24,68.06-208.73l9.5-7.19-2.13,20.83,13.69-24.47,1.52,8.11-1,14.59,9.24-13.52,1.63,6.63,10.39-13.8,2.38,9.37C507.66,440.21,487.62,501.57,470.88,561Z" transform="translate(-347.75 -347.95)"/><path class="cls-4" d="M547.33,597l10.42,5.68-5.28,9.13,8.3,6-5.59,10.23-72.12,13.83L493,623.68l-7.43-1.12L488.08,603l-12.9,13.61-3.36-2.26c12.5-48.31,39.3-126.13,62.05-187.95l3.52,9.83,13.26-21.55-1.19,25,10.45-17.78L562,432.78l10.47-7.72c-14.41,39.71-42.56,116.73-51.92,158.83L562.22,577l4.61,8.39Z" transform="translate(-347.75 -347.95)"/><path class="cls-4" d="M682.12,447.92l8.55,9.34L683,465.74l2.32,8.35-36.13,4.18c-16.2,41-33.84,108.16-42.69,141.49l-5.25-6.29-10.42,16.31-2.29-19.93-8.2,10.92-2.73-8.89-10.38,15.45-2.62-3.22c9.42-33.49,25.79-96.32,41.16-140.82l-33.09,3.82,7.78-12.42-4.44-7,13.57-8.51-3.34-9.82,14.82-6.44L587.37,435l2.13-8,107.07-8.85-6.68,11.4,11,6.3Z" transform="translate(-347.75 -347.95)"/><path class="cls-4" d="M688.73,610.22l-4.28-7.69-7,6.41,1.71-26.37-12.13,23.28-4.9-9-12.39,14.89c17.62-69.34,42.44-148.93,62.88-199.26l2.67,10.78L730,401.44l.47,21.76,10.31-10.49,2.54,9.37,10.21-8.87C734.39,463.16,701.5,562,688.73,610.22Z" transform="translate(-347.75 -347.95)"/><path class="cls-4" d="M841.31,577.4l-6.18-4.57-7.7,14.22-2.61-15.74-8.45,9.48L816.1,566,806,581.33l-3.18,2.38L818.31,522l-.71.11c-12.31,17.54-26,44.48-35,58.93l-4.35-7.55-7.47,8.29c-1.46-13.56-3-35.29-3-49.48l-.71.12c-6.5,17.39-15.29,47.16-20.11,63.3l-3.62-7.54-8.91,12.74-1.2-22.2L723.74,599,722,592.25l-12.59,10.8c13.07-55.5,39.14-142.71,55.72-189.89l4.65,9.33,7.38-13.05L780.26,436,787,412.85l2.71,6.37,7.39-8.71c.34,22.34,2.23,61.4,4.39,75.37,13.27-24.39,37.8-62,53.34-82.75l3.58,8.88L868,398.92l.34,20.19,10.1-13.94,2.79,6,10.23-5.95C874.37,448.28,852.15,527.31,841.31,577.4Z" transform="translate(-347.75 -347.95)"/><path class="cls-4" d="M969.35,547l-8.62-4.19-5.65,6.64-6.38-14.57-7.5,19.64-4.48-7.23-9.32,9.88,3.89-24-28.71,5.06-12.37,27.51-5.85-7.53-5,6.26-1.2-17.45-13.37,21.64-1.27-9.39-16.45,9.64c15.56-39.83,57.27-129.48,88.72-175.28l4.71,12.09,9.81-8.13,2.87,19.35,16.08-22.51,6.76,7.37,11.89-8.89C981.42,433.05,970,511.24,969.35,547Zm-27.51-96.84c-8.72,15.71-19.53,36.79-24.45,49.56l16.07-2.44,8.85-47.18Z" transform="translate(-347.75 -347.95)"/><path class="cls-4" d="M1094.17,406.83l9,6.76-7.35,6.56,2.72,6.19-36.14,4.17c-14.48,31.4-29.28,82.88-36.74,108.5l-5.58-4.52-9.79,12.86-3.17-15-7.8,8.68-3.13-6.65-9.81,12.24-2.77-2.34c8-25.94,21.84-74.4,35.37-108.71l-33.09,3.83,7.29-9.7-4.76-5.23,13.26-6.83-3.76-7.4,14.59-5.25-14.06-5.71,1.8-6.12,107.06-8.85-6.18,8.67,11.37,4.45Z" transform="translate(-347.75 -347.95)"/><path class="cls-4" d="M1180.3,393.3l11.91,5.31-8.9,4.93,3.73,7.66c-10.55-.41-28.6,2.27-41,5.26l-9.3,17.12,34.32-4.52,2.56,4.65-10.85,7.56,9.63,4.59-8,6.12,5.87,4.15-2.86,5.42-41.57,5.82-5.66,20.2c11.11.49,32-3.94,43.35-7.21l-8.36,12.17,5.43,2.24-13.57,8,14.47,1.24-4.57,8.17c-21.23,9.18-55.25,13.44-68.07,13.51l7.78-12.54-8.5-1.83,1.11-10.34-12.67,8c6.53-36.85,21.23-74.13,36.41-105.92l4.86,4.49,8.25-6-3.38-10.75,10-1.83-3-5.84c23.12-5.14,51.09-6.72,69.28-7.09l-7.47,6.4,8.64,5.87Z" transform="translate(-347.75 -347.95)"/><path class="cls-3" d="M470.88,561c-5.55,19.12-23.21,57-31.22,67.43-30.14,40.33-49.32,45.61-73.91,35.5-23.65-9.52-17.9-59.94-13.59-88.75,7.27-46.25,37.34-136.44,71.38-223.93l3.67,6.57-3.74,22.49,10.8-15,2.25,4,4.94-7.61,1.28,11,10.19-19.56.75,12.08,6.85-5.42c-14.63,36.29-21.61,59.18-28.14,78.84-9.16,27-32.84,95.75-35.78,113.28-3.78,22.52-5.9,38.5.84,45.23,11.13,4.48,17.83-4,26.84-28.13,25.09-66.51,51-160.24,68.06-208.73l9.5-7.19-2.13,20.83,13.69-24.47,1.52,8.11-1,14.59,9.24-13.52,1.63,6.63,10.39-13.8,2.38,9.37C507.66,440.21,487.62,501.57,470.88,561Z" transform="translate(-347.75 -347.95)"/><path class="cls-3" d="M547.33,597l10.42,5.68-5.28,9.13,8.3,6-5.59,10.23-72.12,13.83L493,623.68l-7.43-1.12L488.08,603l-12.9,13.61-3.36-2.26c12.5-48.31,39.3-126.13,62.05-187.95l3.52,9.83,13.26-21.55-1.19,25,10.45-17.78L562,432.78l10.47-7.72c-14.41,39.71-42.56,116.73-51.92,158.83L562.22,577l4.61,8.39Z" transform="translate(-347.75 -347.95)"/><path class="cls-3" d="M682.12,447.92l8.55,9.34L683,465.74l2.32,8.35-36.13,4.18c-16.2,41-33.84,108.16-42.69,141.49l-5.25-6.29-10.42,16.31-2.29-19.93-8.2,10.92-2.73-8.89-10.38,15.45-2.62-3.22c9.42-33.49,25.79-96.32,41.16-140.82l-33.09,3.82,7.78-12.42-4.44-7,13.57-8.51-3.34-9.82,14.82-6.44L587.37,435l2.13-8,107.07-8.85-6.68,11.4,11,6.3Z" transform="translate(-347.75 -347.95)"/><path class="cls-3" d="M688.73,610.22l-4.28-7.69-7,6.41,1.71-26.37-12.13,23.28-4.9-9-12.39,14.89c17.62-69.34,42.44-148.93,62.88-199.26l2.67,10.78L730,401.44l.47,21.76,10.31-10.49,2.54,9.37,10.21-8.87C734.39,463.16,701.5,562,688.73,610.22Z" transform="translate(-347.75 -347.95)"/><path class="cls-3" d="M841.31,577.4l-6.18-4.57-7.7,14.22-2.61-15.74-8.45,9.48L816.1,566,806,581.33l-3.18,2.38L818.31,522l-.71.11c-12.31,17.54-26,44.48-35,58.93l-4.35-7.55-7.47,8.29c-1.46-13.56-3-35.29-3-49.48l-.71.12c-6.5,17.39-15.29,47.16-20.11,63.3l-3.62-7.54-8.91,12.74-1.2-22.2L723.74,599,722,592.25l-12.59,10.8c13.07-55.5,39.14-142.71,55.72-189.89l4.65,9.33,7.38-13.05L780.26,436,787,412.85l2.71,6.37,7.39-8.71c.34,22.34,2.23,61.4,4.39,75.37,13.27-24.39,37.8-62,53.34-82.75l3.58,8.88L868,398.92l.34,20.19,10.1-13.94,2.79,6,10.23-5.95C874.37,448.28,852.15,527.31,841.31,577.4Z" transform="translate(-347.75 -347.95)"/><path class="cls-3" d="M969.35,547l-8.62-4.19-5.65,6.64-6.38-14.57-7.5,19.64-4.48-7.23-9.32,9.88,3.89-24-28.71,5.06-12.37,27.51-5.85-7.53-5,6.26-1.2-17.45-13.37,21.64-1.27-9.39-16.45,9.64c15.56-39.83,57.27-129.48,88.72-175.28l4.71,12.09,9.81-8.13,2.87,19.35,16.08-22.51,6.76,7.37,11.89-8.89C981.42,433.05,970,511.24,969.35,547Zm-27.51-96.84c-8.72,15.71-19.53,36.79-24.45,49.56l16.07-2.44,8.85-47.18Z" transform="translate(-347.75 -347.95)"/><path class="cls-3" d="M1094.17,406.83l9,6.76-7.35,6.56,2.72,6.19-36.14,4.17c-14.48,31.4-29.28,82.88-36.74,108.5l-5.58-4.52-9.79,12.86-3.17-15-7.8,8.68-3.13-6.65-9.81,12.24-2.77-2.34c8-25.94,21.84-74.4,35.37-108.71l-33.09,3.83,7.29-9.7-4.76-5.23,13.26-6.83-3.76-7.4,14.59-5.25-14.06-5.71,1.8-6.12,107.06-8.85-6.18,8.67,11.37,4.45Z" transform="translate(-347.75 -347.95)"/><path class="cls-3" d="M1180.3,393.3l11.91,5.31-8.9,4.93,3.73,7.66c-10.55-.41-28.6,2.27-41,5.26l-9.3,17.12,34.32-4.52,2.56,4.65-10.85,7.56,9.63,4.59-8,6.12,5.87,4.15-2.86,5.42-41.57,5.82-5.66,20.2c11.11.49,32-3.94,43.35-7.21l-8.36,12.17,5.43,2.24-13.57,8,14.47,1.24-4.57,8.17c-21.23,9.18-55.25,13.44-68.07,13.51l7.78-12.54-8.5-1.83,1.11-10.34-12.67,8c6.53-36.85,21.23-74.13,36.41-105.92l4.86,4.49,8.25-6-3.38-10.75,10-1.83-3-5.84c23.12-5.14,51.09-6.72,69.28-7.09l-7.47,6.4,8.64,5.87Z" transform="translate(-347.75 -347.95)"/><path class="cls-3" d="M470.88,561c-5.55,19.12-23.21,57-31.22,67.43-30.14,40.33-49.32,45.61-73.91,35.5-23.65-9.52-17.9-59.94-13.59-88.75,7.27-46.25,37.34-136.44,71.38-223.93l3.67,6.57-3.74,22.49,10.8-15,2.25,4,4.94-7.61,1.28,11,10.19-19.56.75,12.08,6.85-5.42c-14.63,36.29-21.61,59.18-28.14,78.84-9.16,27-32.84,95.75-35.78,113.28-3.78,22.52-5.9,38.5.84,45.23,11.13,4.48,17.83-4,26.84-28.13,25.09-66.51,51-160.24,68.06-208.73l9.5-7.19-2.13,20.83,13.69-24.47,1.52,8.11-1,14.59,9.24-13.52,1.63,6.63,10.39-13.8,2.38,9.37C507.66,440.21,487.62,501.57,470.88,561Z" transform="translate(-347.75 -347.95)"/><path class="cls-3" d="M547.33,597l10.42,5.68-5.28,9.13,8.3,6-5.59,10.23-72.12,13.83L493,623.68l-7.43-1.12L488.08,603l-12.9,13.61-3.36-2.26c12.5-48.31,39.3-126.13,62.05-187.95l3.52,9.83,13.26-21.55-1.19,25,10.45-17.78L562,432.78l10.47-7.72c-14.41,39.71-42.56,116.73-51.92,158.83L562.22,577l4.61,8.39Z" transform="translate(-347.75 -347.95)"/><path class="cls-3" d="M682.12,447.92l8.55,9.34L683,465.74l2.32,8.35-36.13,4.18c-16.2,41-33.84,108.16-42.69,141.49l-5.25-6.29-10.42,16.31-2.29-19.93-8.2,10.92-2.73-8.89-10.38,15.45-2.62-3.22c9.42-33.49,25.79-96.32,41.16-140.82l-33.09,3.82,7.78-12.42-4.44-7,13.57-8.51-3.34-9.82,14.82-6.44L587.37,435l2.13-8,107.07-8.85-6.68,11.4,11,6.3Z" transform="translate(-347.75 -347.95)"/><path class="cls-3" d="M688.73,610.22l-4.28-7.69-7,6.41,1.71-26.37-12.13,23.28-4.9-9-12.39,14.89c17.62-69.34,42.44-148.93,62.88-199.26l2.67,10.78L730,401.44l.47,21.76,10.31-10.49,2.54,9.37,10.21-8.87C734.39,463.16,701.5,562,688.73,610.22Z" transform="translate(-347.75 -347.95)"/><path class="cls-3" d="M841.31,577.4l-6.18-4.57-7.7,14.22-2.61-15.74-8.45,9.48L816.1,566,806,581.33l-3.18,2.38L818.31,522l-.71.11c-12.31,17.54-26,44.48-35,58.93l-4.35-7.55-7.47,8.29c-1.46-13.56-3-35.29-3-49.48l-.71.12c-6.5,17.39-15.29,47.16-20.11,63.3l-3.62-7.54-8.91,12.74-1.2-22.2L723.74,599,722,592.25l-12.59,10.8c13.07-55.5,39.14-142.71,55.72-189.89l4.65,9.33,7.38-13.05L780.26,436,787,412.85l2.71,6.37,7.39-8.71c.34,22.34,2.23,61.4,4.39,75.37,13.27-24.39,37.8-62,53.34-82.75l3.58,8.88L868,398.92l.34,20.19,10.1-13.94,2.79,6,10.23-5.95C874.37,448.28,852.15,527.31,841.31,577.4Z" transform="translate(-347.75 -347.95)"/><path class="cls-3" d="M969.35,547l-8.62-4.19-5.65,6.64-6.38-14.57-7.5,19.64-4.48-7.23-9.32,9.88,3.89-24-28.71,5.06-12.37,27.51-5.85-7.53-5,6.26-1.2-17.45-13.37,21.64-1.27-9.39-16.45,9.64c15.56-39.83,57.27-129.48,88.72-175.28l4.71,12.09,9.81-8.13,2.87,19.35,16.08-22.51,6.76,7.37,11.89-8.89C981.42,433.05,970,511.24,969.35,547Zm-27.51-96.84c-8.72,15.71-19.53,36.79-24.45,49.56l16.07-2.44,8.85-47.18Z" transform="translate(-347.75 -347.95)"/><path class="cls-3" d="M1094.17,406.83l9,6.76-7.35,6.56,2.72,6.19-36.14,4.17c-14.48,31.4-29.28,82.88-36.74,108.5l-5.58-4.52-9.79,12.86-3.17-15-7.8,8.68-3.13-6.65-9.81,12.24-2.77-2.34c8-25.94,21.84-74.4,35.37-108.71l-33.09,3.83,7.29-9.7-4.76-5.23,13.26-6.83-3.76-7.4,14.59-5.25-14.06-5.71,1.8-6.12,107.06-8.85-6.18,8.67,11.37,4.45Z" transform="translate(-347.75 -347.95)"/><path class="cls-3" d="M1180.3,393.3l11.91,5.31-8.9,4.93,3.73,7.66c-10.55-.41-28.6,2.27-41,5.26l-9.3,17.12,34.32-4.52,2.56,4.65-10.85,7.56,9.63,4.59-8,6.12,5.87,4.15-2.86,5.42-41.57,5.82-5.66,20.2c11.11.49,32-3.94,43.35-7.21l-8.36,12.17,5.43,2.24-13.57,8,14.47,1.24-4.57,8.17c-21.23,9.18-55.25,13.44-68.07,13.51l7.78-12.54-8.5-1.83,1.11-10.34-12.67,8c6.53-36.85,21.23-74.13,36.41-105.92l4.86,4.49,8.25-6-3.38-10.75,10-1.83-3-5.84c23.12-5.14,51.09-6.72,69.28-7.09l-7.47,6.4,8.64,5.87Z" transform="translate(-347.75 -347.95)"/><path class="cls-5" d="M470.88,561c-5.55,19.12-23.21,57-31.22,67.43-30.14,40.33-49.32,45.61-73.91,35.5-23.65-9.52-17.9-59.94-13.59-88.75,7.27-46.25,37.34-136.44,71.38-223.93l3.67,6.57-3.74,22.49,10.8-15,2.25,4,4.94-7.61,1.28,11,10.19-19.56.75,12.08,6.85-5.42c-14.63,36.29-21.61,59.18-28.14,78.84-9.16,27-32.84,95.75-35.78,113.28-3.78,22.52-5.9,38.5.84,45.23,11.13,4.48,17.83-4,26.84-28.13,25.09-66.51,51-160.24,68.06-208.73l9.5-7.19-2.13,20.83,13.69-24.47,1.52,8.11-1,14.59,9.24-13.52,1.63,6.63,10.39-13.8,2.38,9.37C507.66,440.21,487.62,501.57,470.88,561Z" transform="translate(-347.75 -347.95)"/><path class="cls-5" d="M547.33,597l10.42,5.68-5.28,9.13,8.3,6-5.59,10.23-72.12,13.83L493,623.68l-7.43-1.12L488.08,603l-12.9,13.61-3.36-2.26c12.5-48.31,39.3-126.13,62.05-187.95l3.52,9.83,13.26-21.55-1.19,25,10.45-17.78L562,432.78l10.47-7.72c-14.41,39.71-42.56,116.73-51.92,158.83L562.22,577l4.61,8.39Z" transform="translate(-347.75 -347.95)"/><path class="cls-5" d="M682.12,447.92l8.55,9.34L683,465.74l2.32,8.35-36.13,4.18c-16.2,41-33.84,108.16-42.69,141.49l-5.25-6.29-10.42,16.31-2.29-19.93-8.2,10.92-2.73-8.89-10.38,15.45-2.62-3.22c9.42-33.49,25.79-96.32,41.16-140.82l-33.09,3.82,7.78-12.42-4.44-7,13.57-8.51-3.34-9.82,14.82-6.44L587.37,435l2.13-8,107.07-8.85-6.68,11.4,11,6.3Z" transform="translate(-347.75 -347.95)"/><path class="cls-5" d="M688.73,610.22l-4.28-7.69-7,6.41,1.71-26.37-12.13,23.28-4.9-9-12.39,14.89c17.62-69.34,42.44-148.93,62.88-199.26l2.67,10.78L730,401.44l.47,21.76,10.31-10.49,2.54,9.37,10.21-8.87C734.39,463.16,701.5,562,688.73,610.22Z" transform="translate(-347.75 -347.95)"/><path class="cls-5" d="M841.31,577.4l-6.18-4.57-7.7,14.22-2.61-15.74-8.45,9.48L816.1,566,806,581.33l-3.18,2.38L818.31,522l-.71.11c-12.31,17.54-26,44.48-35,58.93l-4.35-7.55-7.47,8.29c-1.46-13.56-3-35.29-3-49.48l-.71.12c-6.5,17.39-15.29,47.16-20.11,63.3l-3.62-7.54-8.91,12.74-1.2-22.2L723.74,599,722,592.25l-12.59,10.8c13.07-55.5,39.14-142.71,55.72-189.89l4.65,9.33,7.38-13.05L780.26,436,787,412.85l2.71,6.37,7.39-8.71c.34,22.34,2.23,61.4,4.39,75.37,13.27-24.39,37.8-62,53.34-82.75l3.58,8.88L868,398.92l.34,20.19,10.1-13.94,2.79,6,10.23-5.95C874.37,448.28,852.15,527.31,841.31,577.4Z" transform="translate(-347.75 -347.95)"/><path class="cls-5" d="M969.35,547l-8.62-4.19-5.65,6.64-6.38-14.57-7.5,19.64-4.48-7.23-9.32,9.88,3.89-24-28.71,5.06-12.37,27.51-5.85-7.53-5,6.26-1.2-17.45-13.37,21.64-1.27-9.39-16.45,9.64c15.56-39.83,57.27-129.48,88.72-175.28l4.71,12.09,9.81-8.13,2.87,19.35,16.08-22.51,6.76,7.37,11.89-8.89C981.42,433.05,970,511.24,969.35,547Zm-27.51-96.84c-8.72,15.71-19.53,36.79-24.45,49.56l16.07-2.44,8.85-47.18Z" transform="translate(-347.75 -347.95)"/><path class="cls-5" d="M1094.17,406.83l9,6.76-7.35,6.56,2.72,6.19-36.14,4.17c-14.48,31.4-29.28,82.88-36.74,108.5l-5.58-4.52-9.79,12.86-3.17-15-7.8,8.68-3.13-6.65-9.81,12.24-2.77-2.34c8-25.94,21.84-74.4,35.37-108.71l-33.09,3.83,7.29-9.7-4.76-5.23,13.26-6.83-3.76-7.4,14.59-5.25-14.06-5.71,1.8-6.12,107.06-8.85-6.18,8.67,11.37,4.45Z" transform="translate(-347.75 -347.95)"/><path class="cls-5" d="M1180.3,393.3l11.91,5.31-8.9,4.93,3.73,7.66c-10.55-.41-28.6,2.27-41,5.26l-9.3,17.12,34.32-4.52,2.56,4.65-10.85,7.56,9.63,4.59-8,6.12,5.87,4.15-2.86,5.42-41.57,5.82-5.66,20.2c11.11.49,32-3.94,43.35-7.21l-8.36,12.17,5.43,2.24-13.57,8,14.47,1.24-4.57,8.17c-21.23,9.18-55.25,13.44-68.07,13.51l7.78-12.54-8.5-1.83,1.11-10.34-12.67,8c6.53-36.85,21.23-74.13,36.41-105.92l4.86,4.49,8.25-6-3.38-10.75,10-1.83-3-5.84c23.12-5.14,51.09-6.72,69.28-7.09l-7.47,6.4,8.64,5.87Z" transform="translate(-347.75 -347.95)"/><path class="cls-1" d="M470.88,561c-5.55,19.12-23.21,57-31.22,67.43-30.14,40.33-49.32,45.61-73.91,35.5-23.65-9.52-17.9-59.94-13.59-88.75,7.27-46.25,37.34-136.44,71.38-223.93l3.67,6.57-3.74,22.49,10.8-15,2.25,4,4.94-7.61,1.28,11,10.19-19.56.75,12.08,6.85-5.42c-14.63,36.29-21.61,59.18-28.14,78.84-9.16,27-32.84,95.75-35.78,113.28-3.78,22.52-5.9,38.5.84,45.23,11.13,4.48,17.83-4,26.84-28.13,25.09-66.51,51-160.24,68.06-208.73l9.5-7.19-2.13,20.83,13.69-24.47,1.52,8.11-1,14.59,9.24-13.52,1.63,6.63,10.39-13.8,2.38,9.37C507.66,440.21,487.62,501.57,470.88,561Z" transform="translate(-347.75 -347.95)"/><path class="cls-1" d="M547.33,597l10.42,5.68-5.28,9.13,8.3,6-5.59,10.23-72.12,13.83L493,623.68l-7.43-1.12L488.08,603l-12.9,13.61-3.36-2.26c12.5-48.31,39.3-126.13,62.05-187.95l3.52,9.83,13.26-21.55-1.19,25,10.45-17.78L562,432.78l10.47-7.72c-14.41,39.71-42.56,116.73-51.92,158.83L562.22,577l4.61,8.39Z" transform="translate(-347.75 -347.95)"/><path class="cls-1" d="M682.12,447.92l8.55,9.34L683,465.74l2.32,8.35-36.13,4.18c-16.2,41-33.84,108.16-42.69,141.49l-5.25-6.29-10.42,16.31-2.29-19.93-8.2,10.92-2.73-8.89-10.38,15.45-2.62-3.22c9.42-33.49,25.79-96.32,41.16-140.82l-33.09,3.82,7.78-12.42-4.44-7,13.57-8.51-3.34-9.82,14.82-6.44L587.37,435l2.13-8,107.07-8.85-6.68,11.4,11,6.3Z" transform="translate(-347.75 -347.95)"/><path class="cls-1" d="M688.73,610.22l-4.28-7.69-7,6.41,1.71-26.37-12.13,23.28-4.9-9-12.39,14.89c17.62-69.34,42.44-148.93,62.88-199.26l2.67,10.78L730,401.44l.47,21.76,10.31-10.49,2.54,9.37,10.21-8.87C734.39,463.16,701.5,562,688.73,610.22Z" transform="translate(-347.75 -347.95)"/><path class="cls-1" d="M841.31,577.4l-6.18-4.57-7.7,14.22-2.61-15.74-8.45,9.48L816.1,566,806,581.33l-3.18,2.38L818.31,522l-.71.11c-12.31,17.54-26,44.48-35,58.93l-4.35-7.55-7.47,8.29c-1.46-13.56-3-35.29-3-49.48l-.71.12c-6.5,17.39-15.29,47.16-20.11,63.3l-3.62-7.54-8.91,12.74-1.2-22.2L723.74,599,722,592.25l-12.59,10.8c13.07-55.5,39.14-142.71,55.72-189.89l4.65,9.33,7.38-13.05L780.26,436,787,412.85l2.71,6.37,7.39-8.71c.34,22.34,2.23,61.4,4.39,75.37,13.27-24.39,37.8-62,53.34-82.75l3.58,8.88L868,398.92l.34,20.19,10.1-13.94,2.79,6,10.23-5.95C874.37,448.28,852.15,527.31,841.31,577.4Z" transform="translate(-347.75 -347.95)"/><path class="cls-1" d="M969.35,547l-8.62-4.19-5.65,6.64-6.38-14.57-7.5,19.64-4.48-7.23-9.32,9.88,3.89-24-28.71,5.06-12.37,27.51-5.85-7.53-5,6.26-1.2-17.45-13.37,21.64-1.27-9.39-16.45,9.64c15.56-39.83,57.27-129.48,88.72-175.28l4.71,12.09,9.81-8.13,2.87,19.35,16.08-22.51,6.76,7.37,11.89-8.89C981.42,433.05,970,511.24,969.35,547Zm-27.51-96.84c-8.72,15.71-19.53,36.79-24.45,49.56l16.07-2.44,8.85-47.18Z" transform="translate(-347.75 -347.95)"/><path class="cls-1" d="M1094.17,406.83l9,6.76-7.35,6.56,2.72,6.19-36.14,4.17c-14.48,31.4-29.28,82.88-36.74,108.5l-5.58-4.52-9.79,12.86-3.17-15-7.8,8.68-3.13-6.65-9.81,12.24-2.77-2.34c8-25.94,21.84-74.4,35.37-108.71l-33.09,3.83,7.29-9.7-4.76-5.23,13.26-6.83-3.76-7.4,14.59-5.25-14.06-5.71,1.8-6.12,107.06-8.85-6.18,8.67,11.37,4.45Z" transform="translate(-347.75 -347.95)"/><path class="cls-1" d="M1180.3,393.3l11.91,5.31-8.9,4.93,3.73,7.66c-10.55-.41-28.6,2.27-41,5.26l-9.3,17.12,34.32-4.52,2.56,4.65-10.85,7.56,9.63,4.59-8,6.12,5.87,4.15-2.86,5.42-41.57,5.82-5.66,20.2c11.11.49,32-3.94,43.35-7.21l-8.36,12.17,5.43,2.24-13.57,8,14.47,1.24-4.57,8.17c-21.23,9.18-55.25,13.44-68.07,13.51l7.78-12.54-8.5-1.83,1.11-10.34-12.67,8c6.53-36.85,21.23-74.13,36.41-105.92l4.86,4.49,8.25-6-3.38-10.75,10-1.83-3-5.84c23.12-5.14,51.09-6.72,69.28-7.09l-7.47,6.4,8.64,5.87Z" transform="translate(-347.75 -347.95)"/></g></svg>